<?xml version="1.0" encoding="utf-8"?>
<!-- Generator: Adobe Illustrator 19.0.0, SVG Export Plug-In . SVG Version: 6.00 Build 0)  -->
<svg version="1.1" id="Layer_1" xmlns="http://www.w3.org/2000/svg" xmlns:xlink="http://www.w3.org/1999/xlink" x="0px" y="0px"
	 viewBox="0 0 377.6 377.7" style="enable-background:new 0 0 377.6 377.7;" xml:space="preserve">
<style type="text/css">
	.st0{fill:#FFFFFF;}
</style>
<g id="XMLID_1_">
	<path id="XMLID_51_" class="st0" d="M110.8,258c45,37.1,89.7,73.9,134.6,110.9c-0.7,0.3-1.1,0.5-1.5,0.6c-20.6,6.3-41.7,8.9-63.3,8
		c-20.7-0.9-40.7-5.1-60.1-12.5c-1.2-0.5-1.6-1.1-1.7-2.4c-1.1-14.4-2.2-28.8-3.3-43.2c-1-12.8-2-25.7-2.9-38.5
		c-0.5-6.8-1.1-13.6-1.6-20.4C110.9,259.8,110.9,259.1,110.8,258z"/>
	<path id="XMLID_50_" class="st0" d="M267.8,118.9c-44.9-37-89.4-73.7-134.1-110.6c1.4-0.4,2.4-0.8,3.5-1.1
		C158.7,1,180.7-1.1,203,0.5c19,1.4,37.4,5.6,55.1,12.6c1.2,0.5,1.6,1.1,1.7,2.4c1.2,15.9,2.5,31.8,3.7,47.7
		c1.1,14.3,2.2,28.6,3.3,42.8C267.1,110.2,267.4,114.3,267.8,118.9z"/>
	<path id="XMLID_49_" class="st0" d="M21.2,101.7c1.7-3,3.1-5.7,4.7-8.4C45.9,59.7,73.7,34.4,109,17.5c2-0.9,3-0.2,4.4,0.9
		c25.7,21.3,51.5,42.5,77.2,63.7c0.3,0.3,0.7,0.6,1.4,1.3C134.9,89.5,78.3,95.6,21.2,101.7z"/>
	<path id="XMLID_48_" class="st0" d="M96.9,354c-4.6-2.9-9.2-5.6-13.7-8.6c-29.9-20.4-52.3-47.2-67.2-80.2c-0.6-1.3-0.5-2,0.5-3.1
		c22.1-25.4,44.2-50.9,66.3-76.4c0.4-0.5,0.9-0.9,1.6-1.6c4.4,56.8,8.7,113.2,13.1,169.6C97.2,353.8,97,353.9,96.9,354z"/>
	<path id="XMLID_47_" class="st0" d="M258.1,266.8c37.5-43.3,74.9-86.4,112.5-129.7c1,4.1,2,7.7,2.8,11.5
		c3.9,17.9,5.1,36.1,3.8,54.3c-1.3,17.5-4.9,34.5-11,51c-0.4,1.2-1,1.7-2.3,1.8c-19,2-38.1,4.1-57.1,6.1c-15.5,1.7-31,3.3-46.5,5
		C259.6,266.8,259,266.8,258.1,266.8z"/>
	<path id="XMLID_46_" class="st0" d="M281.8,24.3c4.2,2.7,8.5,5.2,12.6,8c30,20.5,52.5,47.4,67.3,80.6c0.6,1.3,0.4,2.1-0.5,3.2
		c-21.6,24.8-43.1,49.7-64.7,74.5c-0.6,0.7-1.3,1.5-2.2,2.5c-4.4-56.5-8.7-112.5-13-168.6C281.5,24.5,281.6,24.4,281.8,24.3z"/>
	<path id="XMLID_45_" class="st0" d="M118,112.2c-4.4,5.2-8.7,10.3-13,15.4c-6.3,7.4-12.5,14.9-18.8,22.3
		c-17,19.7-34.1,39.4-51.2,59.1c-8.8,10.2-17.6,20.3-26.4,30.5c-0.3,0.4-0.7,0.8-1.2,1.3c-0.2-0.5-0.4-0.9-0.5-1.3
		c-5.5-20-7.7-40.4-6.5-61.2c1-18.1,4.5-35.7,10.6-52.9c0.5-1.3,1.1-1.8,2.5-2c18-1.9,36-3.8,54-5.8c15.7-1.7,31.5-3.3,47.2-5
		C115.8,112.5,117,112.3,118,112.2z"/>
	<path id="XMLID_44_" class="st0" d="M355.5,277.9c-2.4,4.1-4.8,8.2-7.3,12.2c-19.6,30.5-45.8,53.7-78.6,69.4
		c-1.3,0.6-2.2,0.7-3.4-0.3c-23.2-19.2-46.4-38.4-69.6-57.5c-2.5-2-4.9-4-7.9-6.4c55.8-6,111.1-11.9,166.4-17.8
		C355.3,277.6,355.4,277.8,355.5,277.9z"/>
</g>
</svg>
