<svg xmlns="http://www.w3.org/2000/svg" xmlns:xlink="http://www.w3.org/1999/xlink" viewBox="-6481 -10720 182 51">
  <defs>
    <style>
      .cls-1 {
        clip-path: url(#clip-Artboard_1);
      }

      .cls-2 {
        fill: url(#linear-gradient);
      }

      .cls-3 {
        fill: #575757;
        font-size: 20px;
        font-family: Montserrat-Regular, Montserrat;
      }

      .cls-4 {
        fill: #fff;
      }
    </style>
    <linearGradient id="linear-gradient" x1="0.5" x2="0.5" y2="1" gradientUnits="objectBoundingBox">
      <stop offset="0" stop-color="#f99060"/>
      <stop offset="1" stop-color="#d76d77"/>
    </linearGradient>
    <clipPath id="clip-Artboard_1">
      <rect x="-6481" y="-10720" width="182" height="51"/>
    </clipPath>
  </defs>
  <g id="Artboard_1" data-name="Artboard – 1" class="cls-1">
    <rect class="cls-4" x="-6481" y="-10720" width="182" height="51"/>
    <g id="Group_1" data-name="Group 1" transform="translate(-6564.948 -10774)">
      <g id="Group_13" data-name="Group 13" transform="translate(0 84)">
        <path id="XMLID_51_" class="cls-2" d="M110.8,258c4.844,3.994,9.656,7.956,14.49,11.939a1.226,1.226,0,0,1-.161.065,20.245,20.245,0,0,1-6.814.861,20.534,20.534,0,0,1-6.47-1.346.256.256,0,0,1-.183-.258l-.355-4.651c-.108-1.378-.215-2.767-.312-4.145-.054-.732-.118-1.464-.172-2.2C110.811,258.194,110.811,258.118,110.8,258Z" transform="translate(-8.933 -255.224)"/>
        <path id="XMLID_48_" class="cls-2" d="M24.378,202.39c-.5-.312-.99-.6-1.475-.926a20.45,20.45,0,0,1-7.234-8.634.252.252,0,0,1,.054-.334q3.569-4.1,7.137-8.225c.043-.054.1-.1.172-.172.474,6.115.937,12.186,1.41,18.258A.176.176,0,0,0,24.378,202.39Z" transform="translate(75.993 -189.279)"/>
        <path id="XMLID_47_" class="cls-2" d="M258.1,151.063q6.055-6.992,12.111-13.963c.108.441.215.829.3,1.238a20.519,20.519,0,0,1,.409,5.846,20.02,20.02,0,0,1-1.184,5.49.244.244,0,0,1-.248.194c-2.045.215-4.1.441-6.147.657-1.669.183-3.337.355-5.006.538Z" transform="translate(-140.376 -147.339)"/>
        <path id="XMLID_45_" class="cls-2" d="M12.776,112.2c-.474.56-.937,1.109-1.4,1.658-.678.8-1.346,1.6-2.024,2.4q-2.745,3.181-5.512,6.362c-.947,1.1-1.895,2.185-2.842,3.283a1.408,1.408,0,0,1-.129.14,1.206,1.206,0,0,1-.054-.14,20.558,20.558,0,0,1,.441-12.283.287.287,0,0,1,.269-.215c1.938-.2,3.876-.409,5.813-.624,1.69-.183,3.391-.355,5.081-.538C12.539,112.232,12.668,112.211,12.776,112.2Z" transform="translate(89.866 -125.12)"/>
        <path id="XMLID_44_" class="cls-2" d="M206.657,277.543c-.258.441-.517.883-.786,1.313a20.294,20.294,0,0,1-8.462,7.471.293.293,0,0,1-.366-.032q-3.746-3.1-7.493-6.19c-.269-.215-.527-.431-.85-.689,6.007-.646,11.96-1.281,17.913-1.916C206.635,277.511,206.646,277.532,206.657,277.543Z" transform="translate(-78.447 -272.625)"/>
        <path id="XMLID_50_" class="cls-2" d="M148.136,12.787C143.3,8.8,138.512,4.853,133.7.88c.151-.043.258-.086.377-.118a20.327,20.327,0,0,1,13.015.635.256.256,0,0,1,.183.258c.129,1.712.269,3.423.4,5.135.118,1.539.237,3.079.355,4.608C148.061,11.85,148.093,12.291,148.136,12.787Z" transform="translate(-29.368 -24.985)"/>
        <path id="XMLID_49_" class="cls-2" d="M21.2,26.2c.183-.323.334-.614.506-.9a20.5,20.5,0,0,1,8.946-8.16c.215-.1.323-.022.474.1q4.15,3.44,8.311,6.857c.032.032.075.065.151.14C33.44,24.884,27.347,25.54,21.2,26.2Z" transform="translate(71.021 -40.247)"/>
        <path id="XMLID_46_" class="cls-2" d="M281.354,24.3c.452.291.915.56,1.356.861a20.375,20.375,0,0,1,7.245,8.677.279.279,0,0,1-.054.344q-3.488,4-6.965,8.02c-.065.075-.14.161-.237.269-.474-6.082-.937-12.111-1.4-18.15C281.322,24.322,281.332,24.311,281.354,24.3Z" transform="translate(-161.078 -46.682)"/>
      </g>
      <text id="PhotoShare" class="cls-3" transform="translate(140 88)"><tspan x="0" y="0">PhotoShare</tspan></text>
    </g>
  </g>
</svg>
